<svg height="512pt" viewBox="0 0 512 512" width="512pt" xmlns="http://www.w3.org/2000/svg"><path d="m512 331.867188h-241v-120.472657h-30v120.472657h-241v150.097656h30.023438v30.035156h30v-30.035156h391.953124v30.035156h30v-30.035156h30.023438zm-60.035156 60.046874v30h-90.074219v-30zm-120.097656 0v30h-30.023438v-30zm-121.710938 0v30h-30.023438v-30zm-60.046875 0v30h-90.074219v-30zm0 0"/><path d="m195.410156 166.3125 21.214844 21.214844c21.710938-21.710938 57.039062-21.710938 78.75 0l21.214844-21.214844c-33.410156-33.410156-87.769532-33.410156-121.179688 0zm0 0"/><path d="m366.550781 116.351562c-60.957031-60.960937-160.144531-60.960937-221.101562 0l21.210937 21.210938c49.265625-49.257812 129.414063-49.257812 178.679688 0zm0 0"/><path d="m256 30c52.683594 0 102.15625 20.457031 139.300781 57.601562l21.210938-21.214843c-42.808594-42.808594-99.8125-66.386719-160.511719-66.386719s-117.703125 23.578125-160.511719 66.386719l21.210938 21.214843c37.144531-37.144531 86.617187-57.601562 139.300781-57.601562zm0 0"/></svg>